<svg viewBox="0 0 512 512" xmlns="http://www.w3.org/2000/svg">
	<path fill="currentColor" d="m497 301h-19.882l-50.839-125.848c14.651-7.43 24.721-22.632 24.721-40.152 0-8.284-6.716-15-15-15s-15 6.716-15 15c0 8.271-6.729 15-15 15-7.81 0-11.65-2.868-19.595-9.354-10.671-8.713-25.286-20.646-55.405-20.646-21.287 0-34.889 5.969-43.508 12.897-4.636-4.549-10.249-8.102-16.492-10.317v-5.16c17.459-6.192 30-22.865 30-42.42 0-18.415-22.203-53.416-32.658-68.525-2.801-4.055-7.414-6.475-12.342-6.475s-9.541 2.42-12.342 6.475c-10.464 15.122-32.658 50.113-32.658 68.525 0 19.555 12.541 36.228 30 42.42v5.16c-6.243 2.214-11.856 5.768-16.492 10.317-8.619-6.928-22.221-12.897-43.508-12.897-30.119 0-44.734 11.933-55.405 20.646-7.945 6.486-11.785 9.354-19.595 9.354-8.271 0-15-6.729-15-15 0-8.284-6.716-15-15-15s-15 6.716-15 15c0 17.52 10.07 32.722 24.721 40.152l-50.839 125.848h-19.882c-8.284 0-15 6.716-15 15 0 41.355 33.645 75 75 75h61c41.355 0 75-33.645 75-75 0-8.284-6.716-15-15-15h-19.82l-49.728-125.148c7.43-3.252 13.122-7.891 18.116-11.968 9.124-7.45 17.005-13.884 36.432-13.884 27.608 0 29.842 12.854 30.009 15.431-.019-.279-.009-.431-.009-.431 0 19.555 12.541 36.228 30 42.42v217.16c-17.459 6.192-30 22.865-30 42.42 0 8.271-6.729 15-15 15h-30c-8.284 0-15 6.716-15 15s6.716 15 15 15h180c8.284 0 15-6.716 15-15s-6.716-15-15-15h-30c-8.271 0-15-6.729-15-15 0-19.555-12.541-36.228-30-42.42v-217.16c17.459-6.192 30-22.865 30-42.42 0 0 .01.152-.009.431.167-2.577 2.401-15.431 30.009-15.431 19.427 0 27.308 6.434 36.432 13.884 4.994 4.077 10.685 8.716 18.116 11.968l-49.728 125.148h-19.82c-8.284 0-15 6.716-15 15 0 41.355 33.645 75 75 75h61c41.355 0 75-33.645 75-75 0-8.284-6.716-15-15-15zm-361 60h-61c-19.557 0-36.239-12.549-42.43-30.01h145.859c-6.19 17.461-22.872 30.01-42.429 30.01zm-68.762-60 38.648-95.669 38.013 95.669zm188.762-258.194c8.635 14.55 14.872 27.615 15 32.206-.007 8.265-6.733 14.988-15 14.988-8.271 0-15-6.729-15-14.982.122-4.585 6.361-17.656 15-32.212zm-17.58 439.194c1.665-4.695 2.58-9.742 2.58-15 0-8.271 6.729-15 15-15s15 6.729 15 15c0 5.258.915 10.305 2.58 15zm17.58-302c-8.271 0-15-6.729-15-15s6.729-15 15-15 15 6.729 15 15-6.729 15-15 15zm150.115 25.331 38.647 95.669h-76.662zm30.885 155.669h-61c-19.557 0-36.239-12.549-42.43-30.01h145.859c-6.19 17.461-22.872 30.01-42.429 30.01z" />
</svg>
